# xmcd CD database file generated by Grip 3.3.1
# 
# Track frame offsets:
#       150
#       26731
#       40634
#       54523
#       70320
#       84168
#       99754
#       117019
#       126482
#       140558
#       154530
#       168081
# 
# Disc length: 2407 seconds
# 
# Revision: 1
# Processed by: cddbd v1.5.2PL0 Copyright (c) Steve Scherf et al.
# Submitted via: Grip 3.3.1
# 
DISCID=8f09650c
DTITLE=Handel, The Coir of King's College, Cambridge, English Chamber Or
DTITLE=chestra, David Willcocks (cond.) - The Anthem for the Coronation 
DTITLE=of King George II and Queen Caroline, HWV 258-261
DYEAR=1963
DGENRE=Classical
TTITLE0=I. Zadok the Priest
TTITLE1=II. My heart is inditing - My heart is inditing
TTITLE2=II. My heart is inditing - Kings' daughters
TTITLE3=II. My heart is inditing - Upon thy right hand
TTITLE4=II. My heart is inditing - Kings shall be thy nursing fathers
TTITLE5=III. Let thy hand be strengthened - Let thy hand be strengthened
TTITLE6=III. Let thy hand be strengthened - Let justice and judgement
TTITLE7=III. Let thy hand be strengthened - Alleluia
TTITLE8=IV. The King shall rejoice - The King shall rejoice
TTITLE9=IV. The King shall rejoice - Exceeding glad shall he be
TTITLE10=IV. The King shall rejoice - Glory and great worship... Thou hast
TTITLE10=prevented him
TTITLE11=IV. The King shall rejoice - Alleluia
EXTD=
EXTT0=
EXTT1=
EXTT2=
EXTT3=
EXTT4=
EXTT5=
EXTT6=
EXTT7=
EXTT8=
EXTT9=
EXTT10=
EXTT11=
PLAYORDER=
